<svg xmlns="http://www.w3.org/2000/svg" xmlns:xlink="http://www.w3.org/1999/xlink" viewBox="0 0 4014 1024" width="188" height="47" style="" filter="none">
    
    <g>
    <path d="M242.0736 0H835.584c5.3248 69.8368 5.12 139.8784 3.6864 209.92-148.2752 2.2528-296.7552-4.5056-444.8256 2.8672-20.6848 24.9856-6.5536 63.488-11.0592 93.5936 1.8432 172.6464-0.8192 345.088 1.6384 517.5296 151.1424 11.6736 302.8992 2.8672 454.4512 5.5296 0 64.7168 0.4096 129.6384 0.2048 194.56H139.0592C28.2624 1002.2912 4.3008 876.1344 0 781.7216v-499.712C8.6016 206.848 5.7344 118.9888 60.416 58.9824 105.6768 8.192 180.0192 8.192 242.0736 0zM970.9568 0h1651.0976c71.0656 10.0352 158.1056-2.048 214.2208 53.6576 65.536 66.56 59.392 168.1408 61.8496 254.5664-2.8672 176.9472 4.9152 354.5088-4.3008 531.2512-2.048 82.5344-48.5376 172.2368-137.8304 184.5248H1920c0-235.52 0.2048-470.8352 0-706.3552 114.2784-0.4096 228.5568-0.2048 342.8352 0 0.4096 170.5984 0 341.1968 0.2048 511.7952 92.3648-1.4336 184.7296 4.5056 276.8896-4.7104-2.8672-204.5952 4.096-409.3952-3.8912-613.7856-405.0944-1.8432-810.3936-1.4336-1215.488-0.2048 0.2048 69.632 0.6144 139.4688 0.4096 209.1008 151.7568 0.2048 303.7184 0 455.4752 0 0.4096 68.4032 0.2048 136.8064-0.2048 205.0048-151.7568-0.4096-303.5136-0.2048-455.2704-0.2048 0 133.12-0.4096 266.24 0.4096 399.36H967.68c2.048-341.4016-4.3008-682.8032 3.2768-1024zM3344.384 0h472.8832c73.9328 0.8192 179.6096 7.9872 196.8128 99.328V1024h-337.92v-204.5952c-88.8832-0.2048-177.5616-0.2048-266.24-0.2048 0.6144 68.4032-0.2048 136.6016-0.8192 204.8H3041.28c0.2048-252.5184-0.2048-505.0368 0-757.5552 0-77.0048 25.1904-158.9248 86.6304-209.1008C3188.9408 9.216 3270.8608 8.3968 3344.384 0m65.7408 220.16c-0.4096 128-0.2048 256-0.2048 384h266.24c0-128 0.2048-256 0-384h-266.0352z" fill="rgba(255,255,255,1)" p-id="27237" stroke="none"></path>
    </g>
  </svg>